<svg width="3222" height="1801" xmlns="http://www.w3.org/2000/svg" xmlns:xlink="http://www.w3.org/1999/xlink" xml:space="preserve" overflow="hidden"><g transform="translate(-664 -325)"><g><rect x="835.5" y="1371.5" width="2104" height="715" stroke="#000000" stroke-width="6.875" stroke-linecap="butt" stroke-linejoin="miter" stroke-miterlimit="8" stroke-opacity="1" fill="none"/><rect x="1318.5" y="1505.5" width="1588" height="545" stroke="#000000" stroke-width="6.875" stroke-linecap="butt" stroke-linejoin="round" stroke-miterlimit="10" stroke-opacity="1" fill="#E8E8E8" fill-opacity="1"/><text fill="#000000" fill-opacity="1" font-family="Goudy Old Style,Goudy Old Style_MSFontService,sans-serif" font-style="normal" font-variant="normal" font-weight="700" font-stretch="semi-expanded" font-size="64" text-anchor="start" direction="ltr" writing-mode="lr-tb" unicode-bidi="normal" text-decoration="none" transform="matrix(1 0 0 1 868.401 1455)">Agent</text><rect x="706.5" y="455.5" width="1009" height="427" stroke="#000000" stroke-width="6.875" stroke-linecap="butt" stroke-linejoin="miter" stroke-miterlimit="8" stroke-opacity="1" fill="#FFFFFF" fill-opacity="1"/><rect x="1768.5" y="455.5" width="1234" height="422" stroke="#000000" stroke-width="6.875" stroke-linecap="butt" stroke-linejoin="miter" stroke-miterlimit="8" stroke-opacity="1" fill="#FFFFFF" fill-opacity="1"/><rect x="2435.5" y="1740.5" width="428" height="157" stroke="#000000" stroke-width="6.875" stroke-linecap="butt" stroke-linejoin="round" stroke-miterlimit="10" stroke-opacity="1" fill="#A6CAEC" fill-opacity="1"/><text fill="#000000" fill-opacity="1" font-family="DengXian,DengXian_MSFontService,sans-serif" font-style="normal" font-variant="normal" font-weight="700" font-stretch="normal" font-size="64" text-anchor="start" direction="ltr" writing-mode="lr-tb" unicode-bidi="normal" text-decoration="none" transform="matrix(1 0 0 1 2520.48 1840)">时序分析</text><text fill="#000000" fill-opacity="1" font-family="DengXian,DengXian_MSFontService,sans-serif" font-style="normal" font-variant="normal" font-weight="700" font-stretch="normal" font-size="64" text-anchor="start" direction="ltr" writing-mode="lr-tb" unicode-bidi="normal" text-decoration="none" transform="matrix(1 0 0 1 729.986 532)">控制器</text><rect x="765.5" y="580.5" width="432" height="228" stroke="#000000" stroke-width="6.875" stroke-linecap="butt" stroke-linejoin="miter" stroke-miterlimit="8" stroke-opacity="1" fill="#DCEAF7" fill-opacity="1"/><text fill="#000000" fill-opacity="1" font-family="DengXian,DengXian_MSFontService,sans-serif" font-style="normal" font-variant="normal" font-weight="700" font-stretch="normal" font-size="64" text-anchor="start" direction="ltr" writing-mode="lr-tb" unicode-bidi="normal" text-decoration="none" transform="matrix(1 0 0 1 788.838 716)">拓扑聚合分割</text><rect x="1341" y="1629" width="857" height="198" fill="#4E95D9" fill-opacity="1"/><text fill="#FFFFFF" fill-opacity="1" font-family="DengXian,DengXian_MSFontService,sans-serif" font-style="normal" font-variant="normal" font-weight="700" font-stretch="normal" font-size="55" text-anchor="start" direction="ltr" writing-mode="lr-tb" unicode-bidi="normal" text-decoration="none" transform="matrix(1 0 0 1 1521.93 1697)">网络状态计数器获取</text><path d="M2412.34 1820.11 2187.12 1794.92C2185.23 1794.71 2183.87 1793 2184.08 1791.12 2184.3 1789.23 2186 1787.87 2187.88 1788.08L2413.1 1813.28C2414.99 1813.49 2416.35 1815.19 2416.14 1817.07 2415.93 1818.96 2414.23 1820.32 2412.34 1820.11ZM2409.69 1802.52 2435.5 1819.24 2406.64 1829.85ZM2185.97 1805.16C2178.42 1804.32 2172.99 1797.52 2173.84 1789.97 2174.68 1782.42 2181.48 1776.99 2189.03 1777.84 2196.58 1778.68 2202.01 1785.48 2201.17 1793.03 2200.32 1800.58 2193.52 1806.01 2185.97 1805.16Z" fill="#000000" fill-rule="nonzero" fill-opacity="1"/><text fill="#000000" fill-opacity="1" font-family="DengXian,DengXian_MSFontService,sans-serif" font-style="normal" font-variant="normal" font-weight="700" font-stretch="normal" font-size="55" text-anchor="start" direction="ltr" writing-mode="lr-tb" unicode-bidi="normal" text-decoration="none" transform="matrix(1 0 0 1 2264.44 1939)">时延，</text><text fill="#000000" fill-opacity="1" font-family="DengXian,DengXian_MSFontService,sans-serif" font-style="normal" font-variant="normal" font-weight="700" font-stretch="normal" font-size="55" text-anchor="start" direction="ltr" writing-mode="lr-tb" unicode-bidi="normal" text-decoration="none" transform="matrix(1 0 0 1 2264.44 2005)">通过率</text><text fill="#000000" fill-opacity="1" font-family="Goudy Old Style,Goudy Old Style_MSFontService,sans-serif" font-style="normal" font-variant="normal" font-weight="700" font-stretch="semi-expanded" font-size="55" text-anchor="start" direction="ltr" writing-mode="lr-tb" unicode-bidi="normal" text-decoration="none" transform="matrix(1 0 0 1 2258.42 1679)">PFC, </text><text fill="#000000" fill-opacity="1" font-family="Goudy Old Style,Goudy Old Style_MSFontService,sans-serif" font-style="normal" font-variant="normal" font-weight="700" font-stretch="semi-expanded" font-size="55" text-anchor="start" direction="ltr" writing-mode="lr-tb" unicode-bidi="normal" text-decoration="none" transform="matrix(1 0 0 1 2258.42 1745)">CNP,…</text><text fill="#FFFFFF" fill-opacity="1" font-family="DengXian,DengXian_MSFontService,sans-serif" font-style="normal" font-variant="normal" font-weight="700" font-stretch="normal" font-size="83" text-anchor="start" direction="ltr" writing-mode="lr-tb" unicode-bidi="normal" text-decoration="none" transform="matrix(1 0 0 1 3505.66 1617)">③</text><rect x="869.5" y="1508.5" width="382" height="545" stroke="#000000" stroke-width="6.875" stroke-linecap="butt" stroke-linejoin="miter" stroke-miterlimit="8" stroke-opacity="1" fill="#DCEAF7" fill-opacity="1"/><text fill="#000000" fill-opacity="1" font-family="DengXian,DengXian_MSFontService,sans-serif" font-style="normal" font-variant="normal" font-weight="700" font-stretch="normal" font-size="64" text-anchor="start" direction="ltr" writing-mode="lr-tb" unicode-bidi="normal" text-decoration="none" transform="matrix(1 0 0 1 931.448 1725)">拓扑探测</text><rect x="2362.5" y="672.5" width="616" height="99" stroke="#000000" stroke-width="6.875" stroke-linecap="butt" stroke-linejoin="round" stroke-miterlimit="10" stroke-opacity="1" fill="#96DCF8" fill-opacity="1"/><text fill="#000000" fill-opacity="1" font-family="DengXian,DengXian_MSFontService,sans-serif" font-style="normal" font-variant="normal" font-weight="700" font-stretch="normal" font-size="64" text-anchor="start" direction="ltr" writing-mode="lr-tb" unicode-bidi="normal" text-decoration="none" transform="matrix(1 0 0 1 2477.85 732)">求解链路状态</text><rect x="1808.5" y="643.5" width="507" height="165" stroke="#000000" stroke-width="6.875" stroke-linecap="butt" stroke-linejoin="round" stroke-miterlimit="10" stroke-opacity="1" fill="#96DCF8" fill-opacity="1"/><text fill="#000000" fill-opacity="1" font-family="DengXian,DengXian_MSFontService,sans-serif" font-style="normal" font-variant="normal" font-weight="700" font-stretch="normal" font-size="64" text-anchor="start" direction="ltr" writing-mode="lr-tb" unicode-bidi="normal" text-decoration="none" transform="matrix(1 0 0 1 1883.53 703)">基于</text><text fill="#000000" fill-opacity="1" font-family="Goudy Old Style,Goudy Old Style_MSFontService,sans-serif" font-style="normal" font-variant="normal" font-weight="700" font-stretch="semi-expanded" font-size="64" text-anchor="start" direction="ltr" writing-mode="lr-tb" unicode-bidi="normal" text-decoration="none" transform="matrix(1 0 0 1 2011.86 703)">Z</text><text fill="#000000" fill-opacity="1" font-family="DengXian,DengXian_MSFontService,sans-serif" font-style="normal" font-variant="normal" font-weight="700" font-stretch="normal" font-size="64" text-anchor="start" direction="ltr" writing-mode="lr-tb" unicode-bidi="normal" text-decoration="none" transform="matrix(1 0 0 1 2046.23 703)">分数的</text><text fill="#000000" fill-opacity="1" font-family="DengXian,DengXian_MSFontService,sans-serif" font-style="normal" font-variant="normal" font-weight="700" font-stretch="normal" font-size="64" text-anchor="start" direction="ltr" writing-mode="lr-tb" unicode-bidi="normal" text-decoration="none" transform="matrix(1 0 0 1 1868.63 780)">链路状态评估</text><rect x="1341" y="1838" width="856" height="198" fill="#4E95D9" fill-opacity="1"/><text fill="#FFFFFF" fill-opacity="1" font-family="DengXian,DengXian_MSFontService,sans-serif" font-style="normal" font-variant="normal" font-weight="700" font-stretch="normal" font-size="55" text-anchor="start" direction="ltr" writing-mode="lr-tb" unicode-bidi="normal" text-decoration="none" transform="matrix(1 0 0 1 1603.68 1906)">主动网络探测</text><rect x="1032.5" y="1267.5" width="297" height="125" stroke="#042433" stroke-width="6.875" stroke-linecap="butt" stroke-linejoin="miter" stroke-miterlimit="8" stroke-opacity="1" fill="#FFFFFF" fill-opacity="1"/><text fill="#000000" fill-opacity="1" font-family="Goudy Old Style,Goudy Old Style_MSFontService,sans-serif" font-style="normal" font-variant="normal" font-weight="700" font-stretch="semi-expanded" font-size="64" text-anchor="start" direction="ltr" writing-mode="lr-tb" unicode-bidi="normal" text-decoration="none" transform="matrix(1 0 0 1 1086.81 1352)">NPU</text><text fill="#000000" fill-opacity="1" font-family="Goudy Old Style,Goudy Old Style_MSFontService,sans-serif" font-style="normal" font-variant="normal" font-weight="700" font-stretch="semi-expanded" font-size="64" text-anchor="start" direction="ltr" writing-mode="lr-tb" unicode-bidi="normal" text-decoration="none" transform="matrix(1 0 0 1 1242.07 1352)">0</text><text fill="#000000" fill-opacity="1" font-family="Goudy Old Style,Goudy Old Style_MSFontService,sans-serif" font-style="normal" font-variant="normal" font-weight="700" font-stretch="semi-expanded" font-size="83" text-anchor="start" direction="ltr" writing-mode="lr-tb" unicode-bidi="normal" text-decoration="none" transform="matrix(1 0 0 1 2107.46 1345)">…</text><rect x="1640.5" y="1277.5" width="296" height="125" stroke="#042433" stroke-width="6.875" stroke-linecap="butt" stroke-linejoin="miter" stroke-miterlimit="8" stroke-opacity="1" fill="#FFFFFF" fill-opacity="1"/><text fill="#000000" fill-opacity="1" font-family="Goudy Old Style,Goudy Old Style_MSFontService,sans-serif" font-style="normal" font-variant="normal" font-weight="700" font-stretch="semi-expanded" font-size="64" text-anchor="start" direction="ltr" writing-mode="lr-tb" unicode-bidi="normal" text-decoration="none" transform="matrix(1 0 0 1 1694.49 1362)">NPU</text><text fill="#000000" fill-opacity="1" font-family="Goudy Old Style,Goudy Old Style_MSFontService,sans-serif" font-style="normal" font-variant="normal" font-weight="700" font-stretch="semi-expanded" font-size="64" text-anchor="start" direction="ltr" writing-mode="lr-tb" unicode-bidi="normal" text-decoration="none" transform="matrix(1 0 0 1 1849.75 1362)">1</text><rect x="2356.5" y="1279.5" width="314" height="125" stroke="#042433" stroke-width="6.875" stroke-linecap="butt" stroke-linejoin="miter" stroke-miterlimit="8" stroke-opacity="1" fill="#FFFFFF" fill-opacity="1"/><text fill="#000000" fill-opacity="1" font-family="Goudy Old Style,Goudy Old Style_MSFontService,sans-serif" font-style="normal" font-variant="normal" font-weight="700" font-stretch="semi-expanded" font-size="64" text-anchor="start" direction="ltr" writing-mode="lr-tb" unicode-bidi="normal" text-decoration="none" transform="matrix(1 0 0 1 2407.21 1364)">NPU</text><text fill="#000000" fill-opacity="1" font-family="Goudy Old Style,Goudy Old Style_MSFontService,sans-serif" font-style="normal" font-variant="normal" font-weight="700" font-stretch="semi-expanded" font-size="64" text-anchor="start" direction="ltr" writing-mode="lr-tb" unicode-bidi="normal" text-decoration="none" transform="matrix(1 0 0 1 2562.47 1364)">M</text><text fill="#000000" fill-opacity="1" font-family="DengXian,DengXian_MSFontService,sans-serif" font-style="normal" font-variant="normal" font-weight="700" font-stretch="normal" font-size="64" text-anchor="start" direction="ltr" writing-mode="lr-tb" unicode-bidi="normal" text-decoration="none" transform="matrix(1 0 0 1 1800.96 543)">分析器</text><path d="M0 0 276.615 110.458" stroke="#000000" stroke-width="6.875" stroke-linecap="butt" stroke-linejoin="miter" stroke-miterlimit="8" stroke-opacity="1" fill="none" fill-rule="evenodd" transform="matrix(1 0 0 -1 1180.5 1266.96)"/><path d="M0 0 19.2323 72.3369" stroke="#000000" stroke-width="6.875" stroke-linecap="butt" stroke-linejoin="miter" stroke-miterlimit="8" stroke-opacity="1" fill="none" fill-rule="evenodd" transform="matrix(1 0 0 -1 1784.5 1279.84)"/><path d="M2392.16 1279.28 2117.5 1121.5" stroke="#000000" stroke-width="6.875" stroke-linecap="butt" stroke-linejoin="miter" stroke-miterlimit="8" stroke-opacity="1" fill="none" fill-rule="evenodd"/><path d="M1474.9 1025.98C1465.57 994.312 1513.62 965.151 1582.23 960.844 1610.03 959.098 1638.3 961.707 1662.5 968.253 1688.15 945.937 1748.09 937.455 1796.38 949.309 1804.83 951.382 1812.58 954.01 1819.39 957.109 1839.37 938.61 1888.03 931.095 1928.08 940.323 1939.16 942.877 1948.83 946.57 1956.34 951.12 1988.54 933.626 2045.44 931.465 2083.43 946.294 2099.4 952.526 2110.16 961.122 2113.87 970.608 2166.63 977.253 2197.75 1002.42 2183.39 1026.82 2182.18 1028.87 2180.66 1030.88 2178.85 1032.84 2221.16 1058.27 2210.8 1094.71 2155.71 1114.24 2138.57 1120.32 2118.31 1124.25 2096.9 1125.67 2096.43 1153.02 2047.96 1175.02 1988.65 1174.8 1968.83 1174.73 1949.45 1172.13 1932.64 1167.29 1912.58 1197.96 1842.6 1215.29 1776.34 1206 1748.57 1202.11 1724.58 1193.88 1708.46 1182.72 1640.62 1201.61 1552.56 1191.45 1511.78 1160.03 1511.27 1159.63 1510.76 1159.23 1510.27 1158.83 1465.87 1161.23 1425.65 1146.6 1420.44 1126.17 1417.66 1115.27 1425.45 1104.37 1441.74 1096.36 1403.29 1085.91 1390.38 1062.98 1412.89 1045.14 1425.88 1034.85 1448.66 1028.05 1474.23 1026.82Z" stroke="#042433" stroke-width="6.875" stroke-linecap="butt" stroke-linejoin="miter" stroke-miterlimit="8" stroke-opacity="1" fill="#FFFFFF" fill-rule="evenodd" fill-opacity="1"/><path d="M1489.62 1100.32C1473.21 1100.91 1456.8 1099.16 1442.6 1095.3M1531.12 1155.23C1524.52 1156.45 1517.6 1157.25 1510.54 1157.64M1708.41 1181.62C1703.45 1178.19 1699.29 1174.51 1696.01 1170.67M1937.67 1154.3C1936.94 1158.38 1935.28 1162.41 1932.72 1166.32M2036.1 1080.03C2073.31 1088.39 2096.79 1105.86 2096.46 1124.95M2178.47 1032.17C2172.45 1038.67 2163.25 1044.44 2151.59 1049.02M2113.98 969.664C2115 972.289 2115.48 974.953 2115.4 977.62M1942.33 960.383C1945.83 956.712 1950.47 953.294 1956.1 950.236M1813.54 965.218C1814.97 962.185 1817.21 959.245 1820.21 956.467M1662.41 968.19C1671.17 970.559 1679.27 973.41 1686.54 976.68M1479.12 1034.91C1477.21 1031.99 1475.8 1029 1474.91 1025.98" stroke="#042433" stroke-width="6.875" stroke-linecap="butt" stroke-linejoin="miter" stroke-miterlimit="8" stroke-opacity="1" fill="none" fill-rule="evenodd"/><text fill="#000000" fill-opacity="1" font-family="Goudy Old Style,Goudy Old Style_MSFontService,sans-serif" font-style="normal" font-variant="normal" font-weight="700" font-stretch="semi-expanded" font-size="73" text-anchor="start" direction="ltr" writing-mode="lr-tb" unicode-bidi="normal" text-decoration="none" transform="matrix(1 0 0 1 1583.12 1090)">RoCE</text><text fill="#000000" fill-opacity="1" font-family="Goudy Old Style,Goudy Old Style_MSFontService,sans-serif" font-style="normal" font-variant="normal" font-weight="700" font-stretch="semi-expanded" font-size="73" text-anchor="start" direction="ltr" writing-mode="lr-tb" unicode-bidi="normal" text-decoration="none" transform="matrix(1 0 0 1 1781.08 1090)">Fabric</text><path d="M0 3.4375-27.5 3.4375-27.5-3.4375 0-3.4375ZM-48.125 3.4375-75.625 3.4375-75.625-3.4375-48.125-3.4375ZM-79.0617 13.7508-79.0617 41.2508-85.9367 41.2508-85.9367 13.7508ZM-79.0617 61.8758-79.0617 89.3757-85.9367 89.3757-85.9367 61.8758ZM-79.0617 110.001-79.0617 137.501-85.9367 137.501-85.9367 110.001ZM-79.0617 158.126-79.0617 185.626-85.9367 185.626-85.9367 158.126ZM-79.0617 206.251-79.0617 233.751-85.9367 233.751-85.9367 206.251ZM-79.0617 254.376-79.0617 281.876-85.9367 281.876-85.9367 254.376ZM-79.0617 302.501-79.0617 330.001-85.9367 330.001-85.9367 302.501ZM-79.0617 350.626-79.0617 378.126-85.9367 378.126-85.9367 350.626ZM-79.0617 398.751-79.0617 426.251-85.9367 426.251-85.9367 398.751ZM-79.0617 446.876-79.0617 474.376-85.9367 474.376-85.9367 446.876ZM-79.0617 495.001-79.0617 522.501-85.9367 522.501-85.9367 495.001ZM-79.0617 543.126-79.0617 570.626-85.9367 570.626-85.9367 543.126ZM-79.0617 591.251-79.0617 618.751-85.9367 618.751-85.9367 591.251ZM-79.0617 639.376-79.0617 666.876-85.9367 666.876-85.9367 639.376ZM-79.0617 687.501-79.0617 715.001-85.9367 715.001-85.9367 687.501ZM-79.0617 735.626-79.0617 763.126-85.9367 763.126-85.9367 735.626ZM-79.0617 783.751-79.0617 811.251-85.9367 811.251-85.9367 783.751ZM-79.0617 831.876-79.0617 842.294-82.4992 838.857-65.418 838.857-65.418 845.732-85.9367 845.732-85.9367 831.876ZM-44.793 838.857-17.293 838.857-17.293 845.732-44.793 845.732ZM3.33198 838.857 30.832 838.857 30.832 845.732 3.33198 845.732ZM51.457 838.857 78.957 838.857 78.957 845.732 51.457 845.732ZM99.582 838.857 115.806 838.857 115.806 857.008 108.931 857.008 108.931 842.294 112.368 845.732 99.582 845.732ZM115.806 877.633 115.806 905.133 108.931 905.133 108.931 877.633ZM115.806 925.758 115.806 949.418 108.931 949.418 108.931 925.758ZM126.118 944.835 112.368 972.335 98.6182 944.835Z" fill="#0E2841" fill-rule="nonzero" fill-opacity="1" transform="matrix(1 -1.22465e-16 -1.22465e-16 -1 869.5 1780.83)"/><path d="M0 3.4375-27.5 3.4375-27.5-3.4375 0-3.4375ZM-48.125 3.4375-75.625 3.4375-75.625-3.4375-48.125-3.4375ZM-96.25 3.4375-123.75 3.4375-123.75-3.4375-96.25-3.4375ZM-144.375 3.4375-150.117 3.4375-150.117-25.1958-143.242-25.1958-143.242 0-146.679-3.4375-144.375-3.4375ZM-150.117-45.8209-150.117-73.3208-143.242-73.3208-143.242-45.8209ZM-150.117-93.9458-150.117-121.446-143.242-121.446-143.242-93.9458ZM-150.117-142.071-150.117-169.571-143.242-169.571-143.242-142.071ZM-150.117-190.196-150.117-217.696-143.242-217.696-143.242-190.196ZM-150.117-238.321-150.117-265.821-143.242-265.821-143.242-238.321ZM-150.117-286.446-150.117-313.946-143.242-313.946-143.242-286.446ZM-150.117-334.571-150.117-362.071-143.242-362.071-143.242-334.571ZM-150.117-382.696-150.117-410.196-143.242-410.196-143.242-382.696ZM-150.117-430.821-150.117-458.321-143.242-458.321-143.242-430.821ZM-150.117-478.946-150.117-506.446-143.242-506.446-143.242-478.946ZM-150.117-527.071-150.117-554.571-143.242-554.571-143.242-527.071ZM-150.117-575.196-150.117-602.696-143.242-602.696-143.242-575.196ZM-150.117-623.321-150.117-650.821-143.242-650.821-143.242-623.321ZM-150.117-671.446-150.117-698.946-143.242-698.946-143.242-671.446ZM-150.117-719.571-150.117-747.071-143.242-747.071-143.242-719.571ZM-150.117-767.696-150.117-787.395-135.44-787.395-135.44-780.52-146.679-780.52-143.242-783.957-143.242-767.696ZM-114.815-787.395-87.3153-787.395-87.3153-780.52-114.815-780.52ZM-66.6903-787.395-39.1903-787.395-39.1903-780.52-66.6903-780.52ZM-18.5653-787.395 8.93467-787.395 8.93467-780.52-18.5653-780.52ZM29.5597-787.395 57.0597-787.395 57.0597-780.52 29.5597-780.52ZM77.6847-787.395 105.185-787.395 105.185-780.52 77.6847-780.52ZM125.81-787.395 153.31-787.395 153.31-780.52 125.81-780.52ZM173.935-787.395 201.435-787.395 201.435-780.52 173.935-780.52ZM222.06-787.395 249.56-787.395 249.56-780.52 222.06-780.52ZM270.185-787.395 297.685-787.395 297.685-780.52 270.185-780.52ZM318.31-787.395 345.81-787.395 345.81-780.52 318.31-780.52ZM366.435-787.395 393.935-787.395 393.935-780.52 366.435-780.52ZM414.56-787.395 442.06-787.395 442.06-780.52 414.56-780.52ZM462.685-787.395 490.185-787.395 490.185-780.52 462.685-780.52ZM510.81-787.395 538.31-787.395 538.31-780.52 510.81-780.52ZM558.935-787.395 586.435-787.395 586.435-780.52 558.935-780.52ZM607.06-787.395 634.56-787.395 634.56-780.52 607.06-780.52ZM655.185-787.395 682.685-787.395 682.685-780.52 655.185-780.52ZM703.31-787.395 730.81-787.395 730.81-780.52 703.31-780.52ZM751.435-787.395 778.935-787.395 778.935-780.52 751.435-780.52ZM799.56-787.395 827.06-787.395 827.06-780.52 799.56-780.52ZM847.685-787.395 875.185-787.395 875.185-780.52 847.685-780.52ZM895.81-787.395 923.31-787.395 923.31-780.52 895.81-780.52ZM943.935-787.395 971.435-787.395 971.435-780.52 943.935-780.52ZM992.06-787.395 1019.56-787.395 1019.56-780.52 992.06-780.52ZM1040.18-787.395 1067.68-787.395 1067.68-780.52 1040.18-780.52ZM1088.31-787.395 1115.81-787.395 1115.81-780.52 1088.31-780.52ZM1136.43-787.395 1163.93-787.395 1163.93-780.52 1136.43-780.52ZM1184.56-787.395 1212.06-787.395 1212.06-780.52 1184.56-780.52ZM1232.68-787.395 1260.18-787.395 1260.18-780.52 1232.68-780.52ZM1280.81-787.395 1308.31-787.395 1308.31-780.52 1280.81-780.52ZM1328.93-787.395 1356.43-787.395 1356.43-780.52 1328.93-780.52ZM1377.06-787.395 1404.56-787.395 1404.56-780.52 1377.06-780.52ZM1425.18-787.395 1452.68-787.395 1452.68-780.52 1425.18-780.52ZM1473.31-787.395 1500.81-787.395 1500.81-780.52 1473.31-780.52ZM1521.43-787.395 1542.1-787.395 1542.1-773.682 1535.22-773.682 1535.22-783.957 1538.66-780.52 1521.43-780.52ZM1542.1-753.057 1542.1-725.557 1535.22-725.557 1535.22-753.057ZM1542.1-704.932 1542.1-677.432 1535.22-677.432 1535.22-704.932ZM1542.1-656.807 1542.1-629.307 1535.22-629.307 1535.22-656.807ZM1542.1-608.682 1542.1-581.182 1535.22-581.182 1535.22-608.682ZM1542.1-560.557 1542.1-533.057 1535.22-533.057 1535.22-560.557ZM1542.1-512.432 1542.1-484.932 1535.22-484.932 1535.22-512.432ZM1542.1-464.307 1542.1-436.807 1535.22-436.807 1535.22-464.307ZM1542.1-416.182 1542.1-388.682 1535.22-388.682 1535.22-416.182ZM1542.1-368.057 1542.1-340.557 1535.22-340.557 1535.22-368.057ZM1542.1-319.932 1542.1-292.432 1535.22-292.432 1535.22-319.932ZM1542.1-271.807 1542.1-244.307 1535.22-244.307 1535.22-271.807ZM1542.1-223.682 1542.1-196.182 1535.22-196.182 1535.22-223.682ZM1542.1-175.557 1542.1-148.057 1535.22-148.057 1535.22-175.557ZM1542.1-127.432 1542.1-99.9321 1535.22-99.9321 1535.22-127.432ZM1542.1-79.3071 1542.1-51.8071 1535.22-51.8071 1535.22-79.3071ZM1542.1-31.1821 1542.1-3.68209 1535.22-3.68209 1535.22-31.1821ZM1542.1 16.9429 1542.1 44.4429 1535.22 44.4429 1535.22 16.9429ZM1542.1 65.0679 1542.1 92.5679 1535.22 92.5679 1535.22 65.0679ZM1542.1 113.193 1542.1 140.693 1535.22 140.693 1535.22 113.193ZM1542.1 161.318 1542.1 188.818 1535.22 188.818 1535.22 161.318ZM1542.1 209.443 1542.1 236.943 1535.22 236.943 1535.22 209.443ZM1542.1 257.568 1542.1 285.068 1535.22 285.068 1535.22 257.568ZM1537.99 308.458 1510.49 308.458 1510.49 301.583 1537.99 301.583ZM1489.86 308.458 1479.07 308.458 1479.07 301.583 1489.86 301.583ZM1483.65 318.77 1456.15 305.02 1483.65 291.27Z" fill="#0E2841" fill-rule="nonzero" fill-opacity="1" transform="matrix(1.83697e-16 1 1 -1.83697e-16 1464.5 580.5)"/><text fill="#000000" fill-opacity="1" font-family="Goudy Old Style,Goudy Old Style_MSFontService,sans-serif" font-style="normal" font-variant="normal" font-weight="700" font-stretch="semi-expanded" font-size="64" text-anchor="start" direction="ltr" writing-mode="lr-tb" unicode-bidi="normal" text-decoration="none" transform="matrix(1 0 0 1 1361.81 1597)">Executor</text><path d="M0-3.4375 27.5-3.4375 27.5 3.4375 0 3.4375ZM48.125-3.4375 75.625-3.4375 75.625 3.4375 48.125 3.4375ZM96.25-3.4375 123.75-3.4375 123.75 3.4375 96.25 3.4375ZM144.375-3.4375 171.875-3.4375 171.875 3.4375 144.375 3.4375ZM192.5-3.4375 201.903-3.4375 201.903 21.5343 195.028 21.5343 195.028 0 198.466 3.4375 192.5 3.4375ZM201.903 42.1593 201.903 69.6593 195.028 69.6593 195.028 42.1593ZM201.903 90.2843 201.903 117.784 195.028 117.784 195.028 90.2843ZM201.903 138.409 201.903 165.909 195.028 165.909 195.028 138.409ZM201.903 186.534 201.903 214.034 195.028 214.034 195.028 186.534ZM201.903 234.659 201.903 262.159 195.028 262.159 195.028 234.659ZM201.903 282.784 201.903 310.284 195.028 310.284 195.028 282.784ZM201.903 330.909 201.903 358.409 195.028 358.409 195.028 330.909ZM201.903 379.034 201.903 406.534 195.028 406.534 195.028 379.034ZM201.903 427.159 201.903 454.659 195.028 454.659 195.028 427.159ZM201.903 475.284 201.903 502.784 195.028 502.784 195.028 475.284ZM201.903 523.409 201.903 550.909 195.028 550.909 195.028 523.409ZM201.903 571.534 201.903 599.034 195.028 599.034 195.028 571.534ZM201.903 619.659 201.903 647.159 195.028 647.159 195.028 619.659ZM201.903 667.784 201.903 695.284 195.028 695.284 195.028 667.784ZM201.903 715.909 201.903 743.409 195.028 743.409 195.028 715.909ZM201.903 764.034 201.903 791.534 195.028 791.534 195.028 764.034ZM201.903 812.159 201.903 839.659 195.028 839.659 195.028 812.159ZM201.903 860.284 201.903 887.784 195.028 887.784 195.028 860.284ZM201.903 908.409 201.903 935.909 195.028 935.909 195.028 908.409ZM201.903 956.534 201.903 984.034 195.028 984.034 195.028 956.534ZM201.903 1004.66 201.903 1032.16 195.028 1032.16 195.028 1004.66ZM201.903 1052.78 201.903 1080.28 195.028 1080.28 195.028 1052.78ZM194.789 1100.67 167.289 1100.67 167.289 1093.8 194.789 1093.8ZM146.664 1100.67 138.882 1100.67 138.882 1093.8 146.664 1093.8ZM143.466 1110.98 115.966 1097.23 143.466 1083.48Z" fill="#0E2841" fill-rule="nonzero" fill-opacity="1" transform="matrix(1 0 0 -1 2863.5 1818.73)"/><path d="M23.1157-1.6294 47.9136 0.32168C49.8062 0.470591 51.2197 2.12559 51.0708 4.01822 50.9219 5.91085 49.2669 7.32441 47.3743 7.1755L22.5764 5.22442C20.6838 5.07551 19.2702 3.42051 19.4192 1.52788 19.5681-0.364746 21.2231-1.77831 23.1157-1.6294ZM26.3368 15.8647 0 0 28.4938-11.5506ZM48.7224-9.95905C56.293-9.36341 61.9472-2.74342 61.3516 4.8271 60.7559 12.3976 54.1359 18.0519 46.5654 17.4562 38.9949 16.8606 33.3406 10.2406 33.9363 2.67008 34.5319-4.90044 41.1519-10.5547 48.7224-9.95905Z" fill="#000000" fill-rule="nonzero" fill-opacity="1" transform="matrix(1 0 0 -1 2315.5 725.249)"/><path d="M2240.44 1135.69 2158.17 810.343C2157.7 808.502 2158.82 806.633 2160.66 806.167 2162.5 805.702 2164.37 806.817 2164.83 808.657L2247.1 1134C2247.57 1135.84 2246.46 1137.71 2244.61 1138.18 2242.77 1138.64 2240.91 1137.53 2240.44 1135.69ZM2255.98 1127.03 2249.39 1157.06 2229.32 1133.77ZM2148.17 812.871C2146.31 805.509 2150.77 798.031 2158.13 796.17 2165.49 794.308 2172.97 798.767 2174.83 806.129 2176.69 813.491 2172.23 820.969 2164.87 822.83 2157.51 824.692 2150.03 820.233 2148.17 812.871Z" fill="#000000" fill-rule="nonzero" fill-opacity="1"/><path d="M2219 1185.5C2219 1169.21 2232.21 1156 2248.5 1156 2264.79 1156 2278 1169.21 2278 1185.5 2278 1201.79 2264.79 1215 2248.5 1215 2232.21 1215 2219 1201.79 2219 1185.5Z" stroke="#042433" stroke-width="13.75" stroke-linecap="butt" stroke-linejoin="miter" stroke-miterlimit="8" stroke-opacity="1" fill="none" fill-rule="evenodd"/><path d="M2269 1207 2294 1235.94" stroke="#0E2841" stroke-width="13.75" stroke-linecap="butt" stroke-linejoin="miter" stroke-miterlimit="8" stroke-opacity="1" fill="none" fill-rule="evenodd"/><rect x="2297.5" y="1009.5" width="622" height="169" stroke="#000000" stroke-width="4.58333" stroke-linecap="butt" stroke-linejoin="miter" stroke-miterlimit="8" stroke-opacity="1" fill="#F6C6AD" fill-opacity="1"/><text fill="#000000" fill-opacity="1" font-family="DengXian,DengXian_MSFontService,sans-serif" font-style="normal" font-variant="normal" font-weight="700" font-stretch="normal" font-size="55" text-anchor="start" direction="ltr" writing-mode="lr-tb" unicode-bidi="normal" text-decoration="none" transform="matrix(1 0 0 1 2443.01 1111)">异常分析输出</text><path d="M1118 1501.87 1158.63 1461.16 1146.99 1449.54 1193.53 1449.5 1193.57 1496.04 1181.92 1484.41 1141.29 1525.12Z" stroke="#042433" stroke-width="6.875" stroke-linecap="butt" stroke-linejoin="miter" stroke-miterlimit="8" stroke-opacity="1" fill="#DCEBF8" fill-rule="evenodd" fill-opacity="1"/><path d="M1819.73 1529.21 1829.18 1472.48 1812.95 1469.77 1850.82 1442.72 1877.87 1480.59 1861.64 1477.89 1852.18 1534.62Z" stroke="#042433" stroke-width="6.875" stroke-linecap="butt" stroke-linejoin="miter" stroke-miterlimit="8" stroke-opacity="1" fill="#D1D1D1" fill-rule="evenodd" fill-opacity="1"/><path d="M0 0 53.6921 0 53.6921 1332.72 12.4421 1332.72" stroke="#0E2841" stroke-width="6.875" stroke-linecap="butt" stroke-linejoin="miter" stroke-miterlimit="8" stroke-opacity="1" fill="none" fill-rule="evenodd" transform="matrix(1.83697e-16 1 1 -1.83697e-16 1180.5 1392.5)"/><path d="M0 0 0.000360892 45.4724" stroke="#0E2841" stroke-width="6.875" stroke-linecap="butt" stroke-linejoin="miter" stroke-miterlimit="8" stroke-opacity="1" fill="none" fill-rule="evenodd" transform="matrix(-1 0 0 1 1783.5 1402.5)"/><text fill="#000000" fill-opacity="1" font-family="DengXian,DengXian_MSFontService,sans-serif" font-style="normal" font-variant="normal" font-weight="700" font-stretch="normal" font-size="64" text-anchor="start" direction="ltr" writing-mode="lr-tb" unicode-bidi="normal" text-decoration="none" transform="matrix(6.12323e-17 1 -1 6.12323e-17 721.193 1156)">拓扑探测结果</text><text fill="#000000" fill-opacity="1" font-family="DengXian,DengXian_MSFontService,sans-serif" font-style="normal" font-variant="normal" font-weight="700" font-stretch="normal" font-size="64" text-anchor="start" direction="ltr" writing-mode="lr-tb" unicode-bidi="normal" text-decoration="none" transform="matrix(1 0 0 1 839.244 409)">探测路径列表</text><text fill="#000000" fill-opacity="1" font-family="DengXian,DengXian_MSFontService,sans-serif" font-style="normal" font-variant="normal" font-weight="700" font-stretch="normal" font-size="64" text-anchor="start" direction="ltr" writing-mode="lr-tb" unicode-bidi="normal" text-decoration="none" transform="matrix(6.12323e-17 1 -1 6.12323e-17 2990.24 985)">网络状态结果</text><rect x="1248.5" y="580.5" width="432" height="232" stroke="#000000" stroke-width="6.875" stroke-linecap="butt" stroke-linejoin="miter" stroke-miterlimit="8" stroke-opacity="1" fill="#DCEAF7" fill-opacity="1"/><text fill="#000000" fill-opacity="1" font-family="DengXian,DengXian_MSFontService,sans-serif" font-style="normal" font-variant="normal" font-weight="700" font-stretch="normal" font-size="64" text-anchor="start" direction="ltr" writing-mode="lr-tb" unicode-bidi="normal" text-decoration="none" transform="matrix(1 0 0 1 1271.16 718)">探测计划生成</text><path d="M1242.76 697.124 1200.48 696.937C1198.59 696.929 1197.05 695.383 1197.06 693.485 1197.07 691.586 1198.62 690.054 1200.52 690.062L1242.79 690.249 1242.79 690.249C1244.69 690.258 1246.22 691.803 1246.21 693.702 1246.2 695.6 1244.66 697.132 1242.76 697.124ZM1238.25 679.917 1265.69 693.788 1238.13 707.416ZM1200.44 707.25C1192.85 707.216 1186.72 701.033 1186.75 693.439 1186.78 685.845 1192.97 679.716 1200.56 679.75 1208.15 679.784 1214.28 685.967 1214.25 693.561 1214.22 701.154 1208.03 707.283 1200.44 707.25Z" fill="#000000" fill-rule="nonzero" fill-opacity="1"/><path d="M22.9023 3.53092 252.373 74.9825C254.186 75.5469 255.198 77.4739 254.633 79.2865 254.069 81.0992 252.142 82.1111 250.329 81.5466L20.8584 10.0951C19.0457 9.53065 18.0338 7.60367 18.5982 5.79103 19.1627 3.97839 21.0896 2.96651 22.9023 3.53092ZM22.1688 21.304 0 0 30.3444-4.95264ZM255.439 65.1363C262.689 67.3939 266.737 75.1018 264.479 82.3524 262.222 89.603 254.514 93.6505 247.263 91.3929 240.013 89.1352 235.965 81.4273 238.223 74.1767 240.48 66.9262 248.188 62.8786 255.439 65.1363Z" fill="#000000" fill-rule="nonzero" fill-opacity="1" transform="matrix(-1 0 0 1 2435.85 1819.5)"/><rect x="902.5" y="1791.5" width="315" height="172" stroke="#1C440D" stroke-width="6.875" stroke-linecap="butt" stroke-linejoin="miter" stroke-miterlimit="8" stroke-opacity="1" fill="#4EA72E" fill-opacity="1"/><text fill="#FFFFFF" fill-opacity="1" font-family="Times New Roman,Times New Roman_MSFontService,sans-serif" font-style="normal" font-variant="normal" font-weight="400" font-stretch="normal" font-size="64" text-anchor="start" direction="ltr" writing-mode="lr-tb" unicode-bidi="normal" text-decoration="none" transform="matrix(1 0 0 1 932.581 1853)">hccn_tool</text><text fill="#FFFFFF" fill-opacity="1" font-family="Times New Roman,Times New Roman_MSFontService,sans-serif" font-style="normal" font-variant="normal" font-weight="400" font-stretch="normal" font-size="64" text-anchor="start" direction="ltr" writing-mode="lr-tb" unicode-bidi="normal" text-decoration="none" transform="matrix(1 0 0 1 930.862 1930)">traceroute</text><rect x="1394.5" y="1919.5" width="723" height="89" stroke="#1C440D" stroke-width="6.875" stroke-linecap="butt" stroke-linejoin="miter" stroke-miterlimit="8" stroke-opacity="1" fill="#4EA72E" fill-opacity="1"/><text fill="#FFFFFF" fill-opacity="1" font-family="Times New Roman,Times New Roman_MSFontService,sans-serif" font-style="normal" font-variant="normal" font-weight="400" font-stretch="normal" font-size="64" text-anchor="start" direction="ltr" writing-mode="lr-tb" unicode-bidi="normal" text-decoration="none" transform="matrix(1 0 0 1 1609.33 1981)">HccnRping</text><rect x="1411.5" y="1718.5" width="723" height="89" stroke="#1C440D" stroke-width="6.875" stroke-linecap="butt" stroke-linejoin="miter" stroke-miterlimit="8" stroke-opacity="1" fill="#4EA72E" fill-opacity="1"/><text fill="#FFFFFF" fill-opacity="1" font-family="Times New Roman,Times New Roman_MSFontService,sans-serif" font-style="normal" font-variant="normal" font-weight="400" font-stretch="normal" font-size="64" text-anchor="start" direction="ltr" writing-mode="lr-tb" unicode-bidi="normal" text-decoration="none" transform="matrix(1 0 0 1 1593.27 1780)">hccn_tool</text><text fill="#FFFFFF" fill-opacity="1" font-family="Times New Roman,Times New Roman_MSFontService,sans-serif" font-style="normal" font-variant="normal" font-weight="400" font-stretch="normal" font-size="64" text-anchor="start" direction="ltr" writing-mode="lr-tb" unicode-bidi="normal" text-decoration="none" transform="matrix(1 0 0 1 1862.54 1780)">stat</text></g></g></svg>